<svg height="512pt" viewBox="0 0 512.00221 512" width="512pt" xmlns="http://www.w3.org/2000/svg"><path d="m56.394531 505.167969c8.832031 8.832031 22.890625 9.140625 31.339844.695312l8.351563-8.347656c8.445312-8.449219 8.136718-22.511719-.695313-31.339844l-2.8125-2.8125 10.863281-10.863281c78.8125 52.976562 196.257813 31.101562 281.382813-46.503906 3.0625-2.792969 3.28125-7.535156.492187-10.597656-2.792968-3.0625-7.535156-3.277344-10.597656-.488282-89.488281 81.585938-214.648438 97.28125-284.777344 27.152344-72.683594-72.683594-53.363281-204.746094 37.003906-295.117188 89.796876-89.792968 221.992188-110.128906 295.117188-37.003906 69.398438 69.398438 54.417969 192.015625-23.398438 280.585938-2.734374 3.109375-2.429687 7.851562.683594 10.582031 3.113282 2.734375 7.851563 2.429687 10.582032-.683594 74.332031-84.597656 94.617187-199.546875 42.570312-276.984375l10.863281-10.863281 2.808594 2.8125c8.78125 8.777344 22.851563 9.183594 31.339844.691406l8.351562-8.347656c8.449219-8.449219 8.136719-22.511719-.695312-31.339844l-13.394531-13.394531c-2.929688-2.929688-7.679688-2.933594-10.609376 0-2.929687 2.925781-2.929687 7.675781 0 10.605469l13.398438 13.394531c2.929688 2.933594 3.25 7.570312.691406 10.125l-8.351562 8.351562c-2.46875 2.46875-7.054688 2.375-10.121094-.695312-23.894531-23.894531-25.511719-25.507812-49.5625-49.558594-2.960938-2.960937-3.257812-7.5625-.691406-10.128906l8.347656-8.347656c2.558594-2.554688 7.191406-2.238282 10.125.695312l11.414062 11.414063c2.929688 2.929687 7.679688 2.929687 10.605469 0 2.929688-2.929688 2.929688-7.679688 0-10.605469l-11.410156-11.414062c-8.832031-8.832032-22.894531-9.144532-31.34375-.695313l-8.347656 8.347656c-8.566407 8.566407-8.019531 22.628907.691406 31.339844l2.8125 2.8125-10.859375 10.863281c-81.117188-54.519531-204.988281-30.398437-292.226562 56.835938-86.703126 86.707031-111.632813 210.6875-56.835938 292.222656l-10.859375 10.863281-2.8125-2.8125c-8.679687-8.683593-22.75-9.289062-31.339844-.695312l-8.347656 8.351562c-.003906 0-.003906 0-.003906 0-8.445313 8.449219-8.136719 22.507813.695312 31.339844zm364.34375-436.625 9.292969-9.292969 22.722656 22.722656-9.292968 9.292969c-6.902344-8.488281-14.671876-16.101563-22.722657-22.722656zm-352.199219 352.195312c6.347657 7.808594 14.109376 15.667969 22.722657 22.722657l-9.292969 9.292968-22.722656-22.722656zm-51.792968 14.136719 8.351562-8.347656c2.46875-2.472656 7.058594-2.375 10.125.691406 7.503906 7.503906 43.140625 43.144531 49.558594 49.5625 2.933594 2.929688 3.25 7.566406.695312 10.125l-8.347656 8.347656c-2.558594 2.558594-7.195312 2.238282-10.128906-.691406l-49.558594-49.5625c-2.933594-2.929688-3.25-7.566406-.695312-10.125zm0 0"/><path d="m204.566406 449.273438c180.9375 0 315.570313-236.59375 205.164063-347-27.320313-27.316407-65.09375-39.925782-102.101563-39.53125-63.132812-.066407-124.269531 31.214843-168.96875 75.917968-125.640625 125.640625-89.007812 310.613282 65.90625 310.613282zm-108.40625-223.765626 46.816406 46.820313c-4.238281 9.015625-7.683593 18.320313-10.316406 27.835937l-46.8125-46.8125c2.765625-9.390624 6.21875-18.691406 10.3125-27.84375zm21.34375-38.027343 31.648438 31.648437c-2.515625 10.898438-2.328125 22.195313.609375 33.191406.488281 1.828126.5 3.757813.082031 5.65625l-46.722656-46.722656c4.292968-8.089844 9.09375-16.03125 14.382812-23.773437zm57.695313-61.042969 58.585937 58.582031c-5.007812 2.113281-9.925781 4.441407-14.714844 7.015625-1.300781-5.390625-3.242187-10.59375-5.785156-15.519531-3.515625-6.804687-11.351562-9.976563-18.632812-7.542969-3.664063 1.226563-7.183594 2.75-10.539063 4.53125l-29.464843-29.460937c6.625-6.273438 13.484374-12.148438 20.550781-17.605469zm36.054687-23.316406 69.382813 69.378906c-10.640625 1.320312-21.136719 3.613281-31.335938 6.824219l-61.820312-61.820313c7.738281-5.289062 15.679687-10.089844 23.773437-14.382812zm42.097656-17.273438 43.335938 43.339844c-4.050781 10.769531-5.460938 22.578125-3.699219 34.453125l-67.480469-67.480469c9.152344-4.09375 18.453126-7.546875 27.84375-10.3125zm177.03125 155.816406-31.082031-31.082031c7.46875-4.984375 13.972657-11.429687 19.085938-19.070312l15.84375 15.847656c-.191407 11.792969-1.550781 23.082031-3.847657 34.304687zm-14.539062 44.832032-65.011719-65.011719c11.261719 1.671875 23.101563.570313 34.457031-3.699219l40.867188 40.867188c-2.765625 9.390625-6.222656 18.691406-10.3125 27.84375zm-21.34375 38.027344-59.320312-59.320313c3.214843-10.1875 5.476562-20.683594 6.792968-31.363281l66.90625 66.910156c-4.289062 8.089844-9.089844 16.03125-14.378906 23.773438zm-26.539062 32.828124-41.597657-41.59375c-1.253906-2.597656-3.332031-4.8125-6.078125-6.230468-1.574218-.816406-3.195312-1.558594-4.851562-2.222656 5.460937-8.484376 10.136718-17.386719 14.035156-26.601563l56.097656 56.101563c-5.457031 7.0625-11.335937 13.925781-17.605468 20.546874zm-31.15625 28.214844-30.992188-30.992187c7.476562-5.234375 13.585938-12.210938 17.792969-20.359375l33.746093 33.746094c-6.621093 6.273437-13.484374 12.148437-20.546874 17.605468zm-36.058594 23.316406-44.695313-44.699218c.015625-.007813.035157-.019532.050781-.03125 1.472657-.855469 3.078126-1.144532 4.523438-.808594 10.394531 2.417969 21.089844 1.847656 31.128906-1.613281l32.769532 32.769531c-7.742188 5.289062-15.683594 10.089844-23.777344 14.382812zm-42.09375 17.273438-44.335938-44.335938c9.511719-2.632812 18.808594-6.085937 27.820313-10.332031l44.359375 44.355469c-9.152344 4.09375-18.453125 7.546875-27.84375 10.3125zm102.375-272.394531-.125.015625c-.054688.003906-.089844.011718-.15625-.050782-.0625-.066406-.058594-.101562-.042969-.191406l.011719-.089844c.898437-6.652343.796875-13.3125-.203125-19.804687l20.320312 20.316406c-6.488281-1-13.152343-1.097656-19.804687-.195312zm-28.441406-45.640625c10.550781 11.835937 15.386718 27.621094 13.257812 43.34375l-.011719.082031c-1.355469 9.941406 7.128907 18.449219 17.085938 17.09375l.121093-.015625c15.6875-2.121094 31.476563 2.710938 43.3125 13.261719.152344.136719.1875.378906.074219.554687-13.378906 20.707032-38.988281 29.734375-62.25 22.125-7.652343-2.5-15.710937 3.027344-15.898437 11.234375-.695313 31.015625-10.199219 60.914063-27.488282 86.457031-4.445312 6.570313-1.351562 15.523438 6.207032 17.941407 1.871094.597656 3.699218 1.328125 5.457031 2.179687-4.011719 11.085938-12.503906 19.9375-23.445313 24.378906-7.976562 3.238282-16.613281 3.921876-24.984374 1.976563-5.195313-1.210937-10.699219-.332031-15.492188 2.472656-29.144531 17.039063-63.796875 24.53125-97.578125 21.085938-4.613281-.46875-8.300781-4.15625-8.773437-8.765625-3.066407-30.140625 2.195312-61.003906 16.507812-89.195313.015625-.027343.03125-.058593.042969-.085937 2.867187-5.636719 8.746093-13.730469 5.523437-25.796875-3.136718-11.746094-2.164062-23.640625 2.152344-34.269531 5.953125-14.65625 17.984375-25.949219 33.007812-30.976563.046876-.019531.097657-.023437.144532-.023437.167968 0 .328125.082031.398437.222656 2.464844 4.769531 4.207031 9.878906 5.171875 15.183594 1.5 8.222656 10.636719 12.511718 17.867188 8.414062 22.964844-13.015625 49.136718-20.207031 75.679687-20.804688 8.257813-.183593 13.714844-8.304687 11.230469-15.894531-7.613281-23.289062 1.441406-48.886719 22.125-62.25.175781-.117187.417969-.082031.554688.070313zm-188.542969 46.53125 27.46875 27.46875c-6.890625 5.917968-12.585938 13.183594-16.722657 21.433594l-28.355468-28.355469c5.460937-7.066407 11.335937-13.925781 17.609375-20.546875zm-15.246094 162.867187c-1.988281 11.753907-2.777344 23.738281-2.339844 35.8125l-48.6875-48.6875c.191407-11.792969 1.554688-23.082031 3.847657-34.304687zm-49.839844 9.527344 106 106c-58.210937-7.355469-98.632812-47.703125-106-106zm128.390625 107.175781-46.210937-46.210937c2.175781.078125 4.351562.132812 6.519531.132812 9.882812 0 19.675781-.832031 29.308594-2.460937l44.699218 44.699218c-11.714843 2.394532-22.855468 3.652344-34.316406 3.839844zm225.695313-249.265625-106-106.003906c58.207031 7.355469 98.632812 47.707031 106 106.003906zm-128.390625-107.175781 18.308594 18.304688c-7.640626 5.117187-14.085938 11.617187-19.070313 19.089843l-33.554687-33.554687c11.738281-2.402344 22.882812-3.65625 34.316406-3.839844zm0 0"/><path d="m195.648438 266.382812c-4.128907-.316406-7.734376 2.769532-8.054688 6.898438s2.765625 7.734375 6.898438 8.054688c21.820312 1.691406 38.050781 20.160156 37.34375 41.777343-.140626 4.226563 3.242187 7.746094 7.5 7.746094 4.027343 0 7.359374-3.199219 7.492187-7.253906.964844-29.519531-21.246094-54.90625-51.179687-57.222657zm0 0"/><path d="m224.34375 237.6875c-4.15625-.316406-7.738281 2.765625-8.058594 6.898438-.320312 4.128906 2.769532 7.734374 6.898438 8.054687 21.882812 1.699219 38.050781 20.210937 37.347656 41.777344-.136719 4.140625 3.109375 7.605469 7.25 7.742187.082031.003906.167969.003906.25.003906 4.027344 0 7.359375-3.199218 7.492188-7.253906.964843-29.519531-21.242188-54.902344-51.179688-57.222656zm0 0"/><path d="m253.039062 208.992188c-4.152343-.316407-7.734374 2.769531-8.054687 6.898437s2.765625 7.738281 6.894531 8.058594c21.824219 1.691406 38.050782 20.152343 37.34375 41.777343-.132812 4.136719 3.113282 7.605469 7.253906 7.738282.082032.003906.167969.003906.25.003906 4.027344 0 7.359376-3.199219 7.492188-7.253906.964844-29.515625-21.242188-54.902344-51.179688-57.222656zm0 0"/><path d="m192.078125 303.664062c-4.097656-4.097656-9.542969-6.351562-15.335937-6.351562-11.988282 0-21.691407 9.699219-21.691407 21.691406 0 11.988282 9.699219 21.6875 21.691407 21.6875 19.25 0 28.960937-23.398437 15.335937-37.027344zm-15.335937 22.027344c-3.699219 0-6.691407-2.992187-6.691407-6.6875 0-3.699218 2.992188-6.691406 6.691407-6.691406 1.785156 0 3.464843.695312 4.730468 1.957031 4.207032 4.210938 1.203125 11.421875-4.730468 11.421875zm0 0"/></svg>