<svg width="512" height="512" viewBox="0 0 512 512" fill="none" xmlns="http://www.w3.org/2000/svg">
<path d="M324.3 64C327.6 64 330.6 66.1 331.8 69.2L353.9 128H464C472.8 128 480 135.2 480 144V432C480 440.8 472.8 448 464 448H48C39.2 448 32 440.8 32 432V144C32 135.2 39.2 128 48 128H158.2L178.3 74.4C180.6 68.2 186.6 64 193.3 64H324.3V64ZM324.3 32H193.3C173.3 32 155.4 44.4 148.4 63.1L136 96H48C21.5 96 0 117.5 0 144V432C0 458.5 21.5 480 48 480H464C490.5 480 512 458.5 512 432V144C512 117.5 490.5 96 464 96H376L361.7 58C355.9 42.3 341 32 324.3 32V32ZM256 408C189.8 408 136 354.2 136 288C136 221.8 189.8 168 256 168C322.2 168 376 221.8 376 288C376 354.2 322.2 408 256 408ZM256 200C207.5 200 168 239.5 168 288C168 336.5 207.5 376 256 376C304.5 376 344 336.5 344 288C344 239.5 304.5 200 256 200Z" fill="white"/>
</svg>
