<?xml version="1.0" encoding="iso-8859-1"?>
<!-- Generator: Adobe Illustrator 19.0.0, SVG Export Plug-In . SVG Version: 6.00 Build 0)  -->
<svg version="1.1" id="Layer_1" xmlns="http://www.w3.org/2000/svg" xmlns:xlink="http://www.w3.org/1999/xlink" x="0px" y="0px"
	 viewBox="0 0 512 512" style="enable-background:new 0 0 512 512;" xml:space="preserve">
<g>
	<g>
		<path d="M511.172,249.49c-9.083-59.328-38.962-114.02-84.136-154.001c-47.204-41.774-107.945-64.78-171.036-64.78
			S132.168,53.715,84.963,95.49C39.79,135.471,9.91,190.163,0.828,249.488c-3.979,25.961,6.581,51.928,27.56,67.771l129.821,98.036
			v15.98c0,27.579,22.436,50.016,50.016,50.016h95.552c27.579,0,50.016-22.437,50.016-50.016v-15.98l129.821-98.035
			C504.591,301.417,515.152,275.448,511.172,249.49z M245.334,52.284v36.25c0,5.891,4.776,10.667,10.667,10.667
			c5.89,0,10.667-4.775,10.667-10.667v-36.25c51.55,2.315,100.856,21.366,140.566,54.343l-116.558,292.69h-24.01v-241.45
			c0-5.891-4.777-10.667-10.667-10.667c-5.89,0-10.667,4.775-10.667,10.667v241.45h-24.01L104.769,106.625
			C144.478,73.649,193.785,54.598,245.334,52.284z M172.45,399.316L41.244,300.234c-14.712-11.109-22.118-29.316-19.329-47.516
			c7.556-49.36,30.821-95.228,66.02-130.704l110.426,277.302H172.45z M332.458,431.274c0,15.815-12.867,28.683-28.683,28.683
			h-95.552c-15.815,0-28.683-12.867-28.683-28.683V420.65h34.517c0.012,0,0.023,0.002,0.035,0.002c0.018,0,0.037-0.002,0.055-0.002
			h41.851h41.851c0.018,0,0.037,0.002,0.055,0.002c0.012,0,0.023-0.002,0.035-0.002h34.517V431.274z M470.756,300.235
			L339.55,399.318h-25.912l110.427-277.301c35.199,35.476,58.463,81.343,66.019,130.704
			C492.875,270.918,485.468,289.125,470.756,300.235z"/>
	</g>
</g>
<g>
	<g>
		<path d="M256,109.866c-5.89,0-10.667,4.775-10.667,10.667v3.733c0,5.891,4.775,10.667,10.667,10.667
			c5.89,0,10.667-4.775,10.667-10.667v-3.733C266.667,114.642,261.89,109.866,256,109.866z"/>
	</g>
</g>
<g>
</g>
<g>
</g>
<g>
</g>
<g>
</g>
<g>
</g>
<g>
</g>
<g>
</g>
<g>
</g>
<g>
</g>
<g>
</g>
<g>
</g>
<g>
</g>
<g>
</g>
<g>
</g>
<g>
</g>
</svg>
