<?xml version="1.0" encoding="iso-8859-1"?>
<!-- Generator: Adobe Illustrator 19.0.0, SVG Export Plug-In . SVG Version: 6.00 Build 0)  -->
<svg version="1.1" id="Capa_1" xmlns="http://www.w3.org/2000/svg" xmlns:xlink="http://www.w3.org/1999/xlink" x="0px" y="0px"
	 viewBox="0 0 512 512" style="enable-background:new 0 0 512 512;" xml:space="preserve">
<g>
	<g>
		<path d="M296.819,130.031c14.313-35.956-20.725-71.687-56.9-58.778C242.221,31.139,194.717,8.504,165,35.14
			c-29.83-26.737-77.217-4.038-74.919,35.913c-36.182-12.911-71.206,23.039-56.9,58.978C14.084,135.236,0,152.722,0,173.445v150
			c0,22.576,18.951,42.589,53.363,56.354C83.424,391.823,123.07,398.445,165,398.445c85.878,0,165-28.106,165-74.992V173.445
			C330,152.722,315.916,135.236,296.819,130.031z M255,98.445c8.271,0,15,6.729,15,15s-6.729,15-15,15s-15-6.729-15-15
			S246.729,98.445,255,98.445z M225,173.445c8.271,0,15,6.729,15,15s-6.729,15-15,15s-15-6.729-15-15S216.729,173.445,225,173.445z
			 M195,53.445c8.271,0,15,6.729,15,15s-6.729,15-15,15s-15-6.729-15-15S186.729,53.445,195,53.445z M195,113.445
			c8.271,0,15,6.729,15,15s-6.729,15-15,15s-15-6.729-15-15S186.729,113.445,195,113.445z M165,188.445c8.271,0,15,6.729,15,15
			s-6.729,15-15,15s-15-6.729-15-15S156.729,188.445,165,188.445z M135,53.445c8.271,0,15,6.729,15,15s-6.729,15-15,15
			s-15-6.729-15-15S126.729,53.445,135,53.445z M135,113.445c8.271,0,15,6.729,15,15s-6.729,15-15,15s-15-6.729-15-15
			S126.729,113.445,135,113.445z M105,173.445c8.271,0,15,6.729,15,15s-6.729,15-15,15s-15-6.729-15-15S96.729,173.445,105,173.445z
			 M75,98.445c8.271,0,15,6.729,15,15s-6.729,15-15,15s-15-6.729-15-15S66.729,98.445,75,98.445z M45,158.445
			c8.271,0,15,6.729,15,15s-6.729,15-15,15c-2.527,0-4.906-0.634-6.997-1.742c-4.768-4.245-7.584-8.502-7.958-12.377
			c-0.017-0.293-0.045-0.583-0.045-0.881C30,165.174,36.729,158.445,45,158.445z M300,323.453c0,17.379-50.743,45.192-135,45.192
			c-83.866,0-135-27.656-135-45.2V218.04c35.868,22.851,92.134,30.405,135,30.405c43.159,0,99.048-7.591,135-30.383V323.453z
			 M299.956,174.319c-0.164,1.77-0.821,3.591-2.002,5.54c-1.353,2.231-3.268,4.478-5.702,6.707
			c-9.99,5.542-22.251-1.752-22.251-13.122c0-8.271,6.729-15,15-15s15,6.729,15,15C300,173.74,299.973,174.028,299.956,174.319z"/>
	</g>
</g>
<g>
	<g>
		<path d="M467,398.445c-24.813,0-45,20.187-45,45s20.187,45,45,45s45-20.187,45-45S491.813,398.445,467,398.445z M467,458.445
			c-8.271,0-15-6.729-15-15s6.729-15,15-15s15,6.729,15,15S475.271,458.445,467,458.445z"/>
	</g>
</g>
<g>
	<g>
		<path d="M407,308.445c-24.813,0-45,20.187-45,45s20.187,45,45,45s45-20.187,45-45S431.813,308.445,407,308.445z M407,368.445
			c-8.271,0-15-6.729-15-15s6.729-15,15-15s15,6.729,15,15S415.271,368.445,407,368.445z"/>
	</g>
</g>
<g>
	<g>
		<path d="M347,398.445c-24.813,0-45,20.187-45,45s20.187,45,45,45s45-20.187,45-45S371.813,398.445,347,398.445z M347,458.445
			c-8.271,0-15-6.729-15-15s6.729-15,15-15s15,6.729,15,15S355.271,458.445,347,458.445z"/>
	</g>
</g>
<g>
</g>
<g>
</g>
<g>
</g>
<g>
</g>
<g>
</g>
<g>
</g>
<g>
</g>
<g>
</g>
<g>
</g>
<g>
</g>
<g>
</g>
<g>
</g>
<g>
</g>
<g>
</g>
<g>
</g>
</svg>
