<svg xmlns="http://www.w3.org/2000/svg" data-name="Layer 1" viewBox="0 0 100 125" x="0px" y="0px"><defs><style>.cls-1{fill:none;}</style></defs><title>Rhubarb</title><path class="cls-1" d="M64.92,49.47a1,1,0,0,1,.1.18,1.53,1.53,0,0,1,1.16.88,1.47,1.47,0,0,1-.54,1.7,3.32,3.32,0,0,1-.43.33c0,.09,0,.23-.05.46s-.08.62-.14.9-.08.41-.09.56c.63-.07,1.29-.28,1.32-.56a4.83,4.83,0,0,1,1-2.49c.05-.4.12-.95.19-1.53a.94.94,0,0,1-.75,0L64,49l0,0a.94.94,0,0,1-.1.07h0v.12A1,1,0,0,1,64.92,49.47Z"/><path class="cls-1" d="M86.41,35.78h0a4.35,4.35,0,0,1,1.28.72,11.17,11.17,0,0,1,1.67,1.8,5.92,5.92,0,0,1,.59-.83,4.27,4.27,0,0,0,.61-.86l-.32-.27L89.8,36l-4.22-.37A3.76,3.76,0,0,1,86.41,35.78Z"/><path class="cls-1" d="M81.91,35.46a3.62,3.62,0,0,0,2.58.2,3,3,0,0,1,1-.08l-4-.35A2.69,2.69,0,0,1,81.91,35.46Z"/><path class="cls-1" d="M90,42a10.89,10.89,0,0,1-1.85-2,18.36,18.36,0,0,0-1.31-1.57,9.94,9.94,0,0,0,.27,2.05,12.41,12.41,0,0,1,0,4.14,15.86,15.86,0,0,1,4,.06,1.93,1.93,0,0,1-1-1.2,1.82,1.82,0,0,1,.16-1.26Z"/><path class="cls-1" d="M67.58,48.2c.05-.58.09-1.09.09-1.42a3.26,3.26,0,0,1,.26-1.51c-.85.76-1.63,1.48-2.33,2.14l1.75.65A1,1,0,0,1,67.58,48.2Z"/><path class="cls-1" d="M74,50.47A2.66,2.66,0,0,1,75.1,49c.46-.33,1.09-.77,1.76-3.52.92-3.77,1.76-6.49,4.15-8.27-.08,0-.17-.08-.25-.14-.57-.4-1.63.33-1.86.53a1,1,0,0,1-1,.19,1,1,0,0,1-.32-.19,6.46,6.46,0,0,0-.5.69,1,1,0,0,1-.63.45,1,1,0,0,1-.46,0,4.66,4.66,0,0,0-.09,1,1,1,0,0,1-1.19,1,2.3,2.3,0,0,0-.41,1,3.81,3.81,0,0,1-1.43,2.48,1,1,0,0,1-.55.17,1.55,1.55,0,0,0-1.14.35,1.15,1.15,0,0,0-.28.69,1,1,0,0,1-.34.79,1,1,0,0,1-.83.24h-.08c0,.08,0,.17,0,.28,0,1.38-.49,5.06-.51,5.22a1,1,0,0,1-.33.62,2.64,2.64,0,0,0-.59,1.53c-.16,1.48-1.57,2.09-2.8,2.29l-.08.07a2.3,2.3,0,0,0-.85,1.93.95.95,0,0,1,.64,1,1,1,0,0,1,.36.55c1.06.69,2.4,1.78,2.49,3a2.14,2.14,0,0,1-.12.93,1.47,1.47,0,0,0,.56.14.44.44,0,0,0,.34-.17,3.7,3.7,0,0,0,.39-2.5c-.2-2.25-.56-6.45,1.89-7.94C72.93,52.3,73.58,51.63,74,50.47Z"/><path class="cls-1" d="M71.92,42.47a2.08,2.08,0,0,0,.25-.43h-.45l-.78.65A3.9,3.9,0,0,1,71.92,42.47Z"/><path class="cls-1" d="M81.67,52.13c2.69-1.89,4-8.85,3.49-11.21a10.83,10.83,0,0,1-.29-3.31l-.32.07c-3.87,1.26-4.64,3.72-5.75,8.29-.78,3.21-1.65,4-2.55,4.68-.27.19-.32.23-.39.44-.61,1.84-1.8,2.84-3.76,4-.79.48-1,1.9-1.06,3.3a37.94,37.94,0,0,1,6.7-4.08l1.45-.77c0-.78,0-2.29,0-4-.1-2.66,1.31-7.63,2.95-9.27a1,1,0,0,1,1.41,1.41c-1,1-2.46,5.31-2.36,7.78,0,1.1,0,2.1,0,2.91Z"/><path class="cls-1" d="M62.59,59.25a4.33,4.33,0,0,1,.73-3.48,2.73,2.73,0,0,1-.26-2.21c0-.22.09-.46.11-.72s.05-.51.09-.73c-7,5.19-19.69,10.29-27.84,13.27C53.55,63.52,60.41,60.52,62.59,59.25Z"/><path class="cls-1" d="M84.33,59a51.16,51.16,0,0,1-9.15-1c-2,1.14-3.7,2.38-4,3.37A7.19,7.19,0,0,1,71,63.93a20.13,20.13,0,0,0,3.39.82c.28,0,1.54-.27,3.11-2.18A11.1,11.1,0,0,1,84.33,59Z"/><path class="cls-1" d="M91.19,52.31a12.67,12.67,0,0,1-6.6,1.56,18,18,0,0,1-1.8-.08,42.56,42.56,0,0,1-4.12,2.34l-.67.35c3.65.52,10.07,1.07,14.37-.7a1,1,0,0,1,1.09.22h0a.51.51,0,0,0,.17,0s0-.86-2.28-3.34A1,1,0,0,1,91.19,52.31Z"/><path class="cls-1" d="M65.64,43.14A20.71,20.71,0,0,1,66.29,39c.67-2.44,1-4.48-1.19-7.93a5.1,5.1,0,0,0-.66.56,1,1,0,0,1,.1.19,6.38,6.38,0,0,1-.34,3.69c-.58,1.72.28,4,.9,5.67A13,13,0,0,1,65.64,43.14Z"/><path class="cls-1" d="M92.58,50c-4-.71-6.4,0-7.14.33a12.5,12.5,0,0,1-.86,1.56c1.95,0,4.71-.33,6.14-1.72a1,1,0,0,1,1.41,0,1,1,0,0,1,.17.27,1.67,1.67,0,0,0,.32-.46Z"/><path class="cls-1" d="M88.59,33a2.11,2.11,0,0,1,1-1.19,16.46,16.46,0,0,0-5.12,1.63l4.08.36A2.07,2.07,0,0,1,88.59,33Z"/><path class="cls-1" d="M93.42,47.52a3,3,0,0,0-1.1-.5h0a13,13,0,0,0-5.61-.32q-.16.65-.36,1.29a17.4,17.4,0,0,1,6.57,0A2.17,2.17,0,0,0,93.42,47.52Z"/><path class="cls-1" d="M68.5,68.37a56.21,56.21,0,0,1-5.28-5.54,1,1,0,0,1-.29.41,4.68,4.68,0,0,0-.15.74c-.41,3.41.33,6.79,1.52,7a5.68,5.68,0,0,0,1.92-.09,2.69,2.69,0,0,1,3,.89c1.19,1.47,1.57,1.75,2,1.52s.5-.3.75-.42A15.47,15.47,0,0,0,68.5,68.37Z"/><path class="cls-1" d="M79.77,72.28c-.57-.25-1.26-.51-2-.78-2.29-.84-5.22-1.92-7.32-4a17.42,17.42,0,0,1,3.87,5.91,3.56,3.56,0,0,1,.29.67,2,2,0,0,0,1.25,1.13c1,.34,2.71.34,5.66-1.42C81.43,73.39,81,72.83,79.77,72.28Z"/><path class="cls-1" d="M14.89,70.34c-2.53,0-4.13,0-4.41-.06a1,1,0,0,1-1-1,1,1,0,0,1,.1-.4h-.2a5.18,5.18,0,0,0,.3,2.81c3.1.59,20.81,3.29,45-5.64C40.31,69.85,22.91,70.34,14.89,70.34Z"/><path class="cls-1" d="M89,66.6a7.52,7.52,0,0,1,0-2.06,30,30,0,0,1-3.38,1.25A8.74,8.74,0,0,1,89,69.34a1.64,1.64,0,0,0,1-.09s.21-.54-.87-2.27A1,1,0,0,1,89,66.6Z"/><path class="cls-1" d="M7.76,67.45a1,1,0,0,1,.89-.58c7.08-.14,13.27-.42,18.68-.8C29,65.51,51.89,58,62,50.57a2.55,2.55,0,0,1-.17-1.14c-6.36,3.69-30.48,16.65-56,16.69a4.73,4.73,0,0,0,1,2.7,1.67,1.67,0,0,0,.48.32A5.49,5.49,0,0,1,7.76,67.45Z"/><path class="cls-1" d="M70.41,67.42a9.35,9.35,0,0,1-1.17-1.52l-.36.09c.31.3.63.6,1,.89Z"/><path class="cls-1" d="M93,57.86a1,1,0,0,1-.15-.13,20.55,20.55,0,0,1-5.93,1.19,1,1,0,0,1-.48,1.77c-2.18.3-5.46.76-7.42,3.14A11.27,11.27,0,0,1,77.9,65a27.34,27.34,0,0,0,12.28-3.27,5.41,5.41,0,0,1,1.22-1.18c2.07-1.45,2.28-2,2.28-2.1S93.62,58.22,93,57.86Z"/><path class="cls-1" d="M87.4,70.68a7.59,7.59,0,0,0-4.86-4.12,26.06,26.06,0,0,1-4.83.47,23.21,23.21,0,0,1-5.48-.65,18.75,18.75,0,0,0,6.23,3.25c.76.28,1.49.55,2.12.83a4.6,4.6,0,0,1,2.84,2.63,3.72,3.72,0,0,0,.67-.37l.62-.45a3.73,3.73,0,0,1,2.54-1.08.81.81,0,0,0,.36-.2A1,1,0,0,1,87.4,70.68Z"/><path class="cls-1" d="M62.11,42.87a3.15,3.15,0,0,1-.61,1.06,4.19,4.19,0,0,0,.27.4,8.89,8.89,0,0,1,1.08,1.84,2.93,2.93,0,0,0,.24.46h0a1,1,0,0,1,.38,0l.54-.51a17.39,17.39,0,0,0-.8-4.26c-.73-1.94-1.73-4.6-.93-7,.09-.26.15-.49.2-.71-.23.06-.48.1-.78.15l-.13,0a2.52,2.52,0,0,0-1.83,2,3,3,0,0,0,1.08,2.88C62.28,40.5,62.67,41.21,62.11,42.87Z"/><path class="cls-1" d="M76,36.22l.69-.48a2.63,2.63,0,0,1,.37-.25q1.06-.72,2.13-1.39a1,1,0,0,1,.07-.4c.68-1.54,1.38-3.19,1.92-4.49a1.63,1.63,0,0,1-1.91-.51l-.2-.25a5.67,5.67,0,0,0-.88-.94l-.35.21C77.34,28.72,76.59,32.45,76,36.22Z"/><path class="cls-1" d="M82,32.49l1.15-.59q1.1-2.31,1.69-3.51c-.11-.17-.25-.39-.39-.64s-.23-.38-.36-.6A39.3,39.3,0,0,1,82,32.49Z"/><path class="cls-1" d="M87.08,28.36c-.1.16-.58,1.14-1.17,2.35a12.4,12.4,0,0,1,5.33-.85,1.18,1.18,0,0,0-.12-.28c-.15-.24-1-.29-1.45-.31a2.3,2.3,0,0,1-1.77-.56,4.3,4.3,0,0,1-.49-.8h0c-.1.15-.22.31-.34.45Z"/><path class="cls-1" d="M71.83,39.36c.62-.49,1.26-1,1.91-1.48a79.74,79.74,0,0,1,1.83-9.7l-.12-.06a5.32,5.32,0,0,1-1.6-2.46,1,1,0,0,0-.91-.7l-.07.33A4.08,4.08,0,0,1,72.16,27,35.18,35.18,0,0,1,71.83,39.36Z"/><path class="cls-1" d="M65.81,28.94a1,1,0,0,1,.51.37c3.09,4.54,2.65,7.43,1.89,10.23a18.14,18.14,0,0,0-.55,3.3l1.63-1.4a35.82,35.82,0,0,0,1-13.74,11.22,11.22,0,0,1-3.69-.9c-1-.4-1.33-.34-1.37-.33a1.26,1.26,0,0,0-.09.19,5.07,5.07,0,0,1-.62,1.1A3.07,3.07,0,0,1,65.81,28.94Z"/><path d="M95.24,57.17a1.9,1.9,0,0,0,.21-.37c.5-1.14-.09-2.63-1.91-4.75A3.35,3.35,0,0,0,94.66,50a2,2,0,0,0-.09-.76,2.38,2.38,0,0,0,.87-2,2.13,2.13,0,0,0-1-1.51,2,2,0,0,0,.42-1.32,1.75,1.75,0,0,0-.89-1.36,3.8,3.8,0,0,0-1.74-1.93c-.4-.25-1.24-.78-1.31-1.19a1.91,1.91,0,0,1,.6-1.19,3.49,3.49,0,0,0,1.11-2.38,2.35,2.35,0,0,0-1.09-1.59,6.72,6.72,0,0,1-.58-.5,1.31,1.31,0,0,1-.44-.67.91.91,0,0,1,.5-.21,2.83,2.83,0,0,0,2-1.69,3.57,3.57,0,0,0-.19-3.18c-.7-1.15-2.12-1.22-3.05-1.26l-.45,0L89.19,27c-.35-.66-.74-1.42-1.51-1.56a1.29,1.29,0,0,0-1.11.33,3.8,3.8,0,0,0-.59.7c-.56-.95-1.26-2-2.32-1.75a2.53,2.53,0,0,0-1.51,1.36,4.66,4.66,0,0,1-.37.54,5.57,5.57,0,0,0-.6.37,5.59,5.59,0,0,1-.49.3l-.07-.09c-.64-.79-2-2.42-3.46-1.39a3.3,3.3,0,0,1-.79.39A5.13,5.13,0,0,1,75.73,25a3,3,0,0,0-2.39-2,2.06,2.06,0,0,0-2,.65,3.06,3.06,0,0,0-.45,1.22,3.73,3.73,0,0,1-.25.83,8,8,0,0,1-3.39-.76,3.88,3.88,0,0,0-2.91-.29A2.19,2.19,0,0,0,63.23,26a4.13,4.13,0,0,1-.5.81,2,2,0,0,0-.54,1.84,1.31,1.31,0,0,0,1,.8,1.81,1.81,0,0,1,.49.2A4.61,4.61,0,0,0,62,32l-.07.28-.5.09-.13,0a4.48,4.48,0,0,0-3.42,3.42,5,5,0,0,0,1.67,4.87c1,.87,1,.87.72,1.57a1.29,1.29,0,0,1-.28.45c-.73.89-.67,1.63.24,2.84A7.05,7.05,0,0,1,61,47c.07.15.14.29.22.44-5.47,3.23-30.41,17-56.44,16.68h0a1,1,0,0,0-1,1c0,.35,0,3.46,1.69,5.17a3.65,3.65,0,0,0,2,1A8,8,0,0,0,8.09,73a1,1,0,0,0,.67.55,55,55,0,0,0,11.8,1.06c9.22,0,23.27-1.62,40.1-8.75,0,3,.66,6.74,3.36,7.11a7.77,7.77,0,0,0,2.53-.1c.82-.14.83-.12,1.12.23,1.06,1.32,2.52,3.12,4.5,1.93l.54-.31a4,4,0,0,0,2.48,2.39,5.28,5.28,0,0,0,1.81.3,11.52,11.52,0,0,0,5.81-2,5.57,5.57,0,0,0,2.43-1l.66-.48a3,3,0,0,1,1.18-.69A2.76,2.76,0,0,0,89.4,72a2.4,2.4,0,0,0,.31-.61,2.5,2.5,0,0,0,1.93-1c1-1.38-.16-3.39-.7-4.27a4.41,4.41,0,0,1,1.6-3.93c1.69-1.18,3.2-2.36,3.13-3.84A2.13,2.13,0,0,0,95.24,57.17Zm-1.58-1.22a.51.51,0,0,1-.17,0h0a1,1,0,0,0-1.09-.22C88.08,57.55,81.65,57,78,56.48l.67-.35a42.56,42.56,0,0,0,4.12-2.34,18,18,0,0,0,1.8.08,12.67,12.67,0,0,0,6.6-1.56,1,1,0,0,0,.18.3C93.67,55.09,93.62,55.94,93.65,55.95Zm-16.2,6.62c-1.57,1.91-2.83,2.15-3.11,2.18A20.13,20.13,0,0,1,71,63.93a7.19,7.19,0,0,0,.23-2.51c.31-1,2-2.23,4-3.37a51.16,51.16,0,0,0,9.15,1A11.1,11.1,0,0,0,77.45,62.57Zm-13.25-27a6.38,6.38,0,0,0,.34-3.69,1,1,0,0,0-.1-.19,5.1,5.1,0,0,1,.66-.56C67.26,34.53,67,36.57,66.29,39a20.71,20.71,0,0,0-.65,4.13,13,13,0,0,0-.54-2C64.48,39.52,63.62,37.24,64.2,35.52Zm25.35-3.67a2.11,2.11,0,0,0-1,1.19,2.07,2.07,0,0,0-.07.8l-4.08-.36A16.46,16.46,0,0,1,89.55,31.85ZM92.3,50.44a1,1,0,0,0-.17-.27,1,1,0,0,0-1.41,0c-1.43,1.39-4.2,1.71-6.14,1.72a12.5,12.5,0,0,0,.86-1.56c.74-.3,3.11-1,7.14-.33h0A1.67,1.67,0,0,1,92.3,50.44Zm-11.13-.93c-.09-2.47,1.33-6.74,2.36-7.78a1,1,0,0,0-1.41-1.41c-1.64,1.64-3,6.61-2.95,9.27.07,1.7,0,3.21,0,4l-1.45.77A37.94,37.94,0,0,0,71,58.44c0-1.4.27-2.82,1.06-3.3,2-1.2,3.15-2.19,3.76-4,.07-.21.12-.25.39-.44C77.15,50,78,49.19,78.81,46c1.11-4.58,1.88-7,5.75-8.29l.32-.07a10.83,10.83,0,0,0,.29,3.31c.54,2.36-.8,9.32-3.49,11.21l-.45.29C81.23,51.62,81.22,50.62,81.18,49.52Zm-17.32-.46A.94.94,0,0,0,64,49l0,0,2.65,1a.94.94,0,0,0,.75,0c-.07.58-.13,1.13-.19,1.53a4.83,4.83,0,0,0-1,2.49c0,.28-.68.49-1.32.56,0-.15.05-.39.09-.56s.11-.57.14-.9,0-.36.05-.46a3.32,3.32,0,0,0,.43-.33,1.47,1.47,0,0,0,.54-1.7A1.53,1.53,0,0,0,65,49.66a1,1,0,0,0-.1-.18,1,1,0,0,0-1.08-.29v-.12ZM89.8,36l.45.38.32.27a4.27,4.27,0,0,1-.61.86,5.92,5.92,0,0,0-.59.83,11.17,11.17,0,0,0-1.67-1.8,4.35,4.35,0,0,0-1.28-.72h0a3.76,3.76,0,0,0-.83-.19Zm.28,7.52a1.93,1.93,0,0,0,1,1.2,15.86,15.86,0,0,0-4-.06,12.41,12.41,0,0,0,0-4.14,9.94,9.94,0,0,1-.27-2.05A18.36,18.36,0,0,1,88.16,40,10.89,10.89,0,0,0,90,42l.23.19A1.82,1.82,0,0,0,90.08,43.48ZM86.33,48q.2-.64.36-1.29A13,13,0,0,1,92.3,47h0a3,3,0,0,1,1.1.5,2.17,2.17,0,0,1-.52.49A17.4,17.4,0,0,0,86.33,48ZM84.48,35.66a3.62,3.62,0,0,1-2.58-.2,2.69,2.69,0,0,0-.4-.23l4,.35A3,3,0,0,0,84.48,35.66ZM69.17,61.37a3.7,3.7,0,0,1-.39,2.5.44.44,0,0,1-.34.17,1.47,1.47,0,0,1-.56-.14A2.14,2.14,0,0,0,68,63c-.09-1.18-1.43-2.27-2.49-3a1,1,0,0,0-.36-.55.95.95,0,0,0-.64-1,2.3,2.3,0,0,1,.85-1.93l.08-.07c1.23-.19,2.64-.8,2.8-2.29a2.64,2.64,0,0,1,.59-1.53,1,1,0,0,0,.33-.62c0-.16.51-3.83.51-5.22,0-.11,0-.2,0-.28h.08a1,1,0,0,0,.83-.24,1,1,0,0,0,.34-.79,1.15,1.15,0,0,1,.28-.69,1.55,1.55,0,0,1,1.14-.35,1,1,0,0,0,.55-.17,3.81,3.81,0,0,0,1.43-2.48,2.3,2.3,0,0,1,.41-1,1,1,0,0,0,1.19-1,4.66,4.66,0,0,1,.09-1,1,1,0,0,0,.46,0,1,1,0,0,0,.63-.45,6.46,6.46,0,0,1,.5-.69,1,1,0,0,0,.32.19,1,1,0,0,0,1-.19c.23-.2,1.29-.93,1.86-.53.08.06.17.09.25.14-2.39,1.78-3.24,4.5-4.15,8.27-.67,2.75-1.3,3.2-1.76,3.52A2.66,2.66,0,0,0,74,50.47c-.39,1.16-1,1.83-2.9,3C68.61,54.92,69,59.12,69.17,61.37Zm3-19.34a2.08,2.08,0,0,1-.25.43,3.9,3.9,0,0,0-1,.21l.78-.65Zm-4.24,3.24a3.26,3.26,0,0,0-.26,1.51c0,.33,0,.84-.09,1.42a1,1,0,0,0-.23-.14l-1.75-.65C66.29,46.75,67.08,46,67.93,45.28Zm-4.66,6.83c0,.21-.07.45-.09.73s-.07.5-.11.72a2.73,2.73,0,0,0,.26,2.21,4.33,4.33,0,0,0-.73,3.48c-2.18,1.27-9,4.27-27.17,6.13C43.57,62.4,56.25,57.3,63.26,52.11Zm6,13.78a9.35,9.35,0,0,0,1.17,1.52l-.58-.54c-.32-.29-.64-.59-1-.89Zm18.18-38h0a4.3,4.3,0,0,0,.49.8,2.3,2.3,0,0,0,1.77.56c.45,0,1.3.07,1.45.31a1.18,1.18,0,0,1,.12.28,12.4,12.4,0,0,0-5.33.85c.59-1.22,1.07-2.19,1.17-2.35h0C87.2,28.21,87.31,28.06,87.41,27.9Zm-2.6.49q-.6,1.19-1.69,3.51L82,32.49a39.3,39.3,0,0,0,2.09-5.33c.14.22.27.45.36.6S84.7,28.23,84.82,28.4Zm-5.75.05.2.25a1.63,1.63,0,0,0,1.91.51c-.54,1.3-1.24,3-1.92,4.49a1,1,0,0,0-.07.4q-1.07.67-2.13,1.39a2.63,2.63,0,0,0-.37.25l-.69.48c.58-3.77,1.33-7.5,1.83-8.5l.35-.21A5.67,5.67,0,0,1,79.07,28.45Zm-6.2-3.16.07-.33a1,1,0,0,1,.91.7,5.32,5.32,0,0,0,1.6,2.46l.12.06a79.74,79.74,0,0,0-1.83,9.7c-.65.49-1.29,1-1.91,1.48A35.18,35.18,0,0,0,72.16,27,4.08,4.08,0,0,0,72.87,25.29ZM65.1,26.66a1.26,1.26,0,0,1,.09-.19s.33-.07,1.37.33a11.22,11.22,0,0,0,3.69.9,35.82,35.82,0,0,1-1,13.74l-1.63,1.4a18.14,18.14,0,0,1,.55-3.3c.77-2.8,1.2-5.69-1.89-10.23a1,1,0,0,0-.51-.37,3.07,3.07,0,0,0-1.33-1.18A5.07,5.07,0,0,0,65.1,26.66ZM60.84,39.19a3,3,0,0,1-1.08-2.88,2.52,2.52,0,0,1,1.83-2l.13,0c.29-.05.55-.1.78-.15-.05.22-.11.45-.2.71-.8,2.4.2,5.06.93,7a17.39,17.39,0,0,1,.8,4.26l-.54.51a1,1,0,0,0-.38,0h0a2.93,2.93,0,0,1-.24-.46,8.89,8.89,0,0,0-1.08-1.84,4.19,4.19,0,0,1-.27-.4,3.15,3.15,0,0,0,.61-1.06C62.67,41.21,62.28,40.5,60.84,39.19Zm-55,26.93c25.48,0,49.6-13,56-16.69A2.55,2.55,0,0,0,62,50.57C51.89,58,29,65.51,27.32,66.07c-5.41.38-11.6.66-18.68.8a1,1,0,0,0-.89.58,5.49,5.49,0,0,0-.39,1.7,1.67,1.67,0,0,1-.48-.32A4.73,4.73,0,0,1,5.85,66.13Zm3.86,5.54a5.18,5.18,0,0,1-.3-2.81h.2a1,1,0,0,0-.1.4,1,1,0,0,0,1,1c.28,0,1.88.06,4.41.06,8,0,25.42-.5,39.85-4.32C30.52,75,12.82,72.25,9.71,71.66Zm59.48.08a2.69,2.69,0,0,0-3-.89,5.68,5.68,0,0,1-1.92.09c-1.19-.16-1.93-3.54-1.52-7a4.68,4.68,0,0,1,.15-.74,1,1,0,0,0,.29-.41,56.21,56.21,0,0,0,5.28,5.54,15.47,15.47,0,0,1,3.4,4.48c-.24.12-.49.26-.75.42S70.38,73.21,69.19,71.74Zm6.68,3.43A2,2,0,0,1,74.62,74a3.56,3.56,0,0,0-.29-.67,17.42,17.42,0,0,0-3.87-5.91c2.1,2.13,5,3.2,7.32,4,.73.27,1.43.52,2,.78,1.23.55,1.66,1.11,1.76,1.47C78.58,75.51,76.82,75.51,75.87,75.17Zm8.84-2.91-.62.45a3.72,3.72,0,0,1-.67.37,4.6,4.6,0,0,0-2.84-2.63c-.63-.28-1.36-.54-2.12-.83a18.75,18.75,0,0,1-6.23-3.25,23.21,23.21,0,0,0,5.48.65,26.06,26.06,0,0,0,4.83-.47,7.59,7.59,0,0,1,4.86,4.12,1,1,0,0,0,.2.31.81.81,0,0,1-.36.2A3.73,3.73,0,0,0,84.71,72.26Zm5.29-3a1.64,1.64,0,0,1-1,.09,8.74,8.74,0,0,0-3.33-3.54A30,30,0,0,0,89,64.54a7.52,7.52,0,0,0,0,2.06,1,1,0,0,0,.14.38C90.21,68.71,90,69.25,90,69.25Zm1.4-8.7a5.41,5.41,0,0,0-1.22,1.18A27.34,27.34,0,0,1,77.9,65,11.27,11.27,0,0,0,79,63.84c2-2.38,5.25-2.84,7.42-3.14a1,1,0,0,0,.48-1.77,20.55,20.55,0,0,0,5.93-1.19,1,1,0,0,0,.15.13c.63.36.7.58.7.58S93.48,59.1,91.41,60.55Z"/><text x="0" y="115" fill="#000000" font-size="5px" font-weight="bold" font-family="'Helvetica Neue', Helvetica, Arial-Unicode, Arial, Sans-serif">Created by Icons Producer</text><text x="0" y="120" fill="#000000" font-size="5px" font-weight="bold" font-family="'Helvetica Neue', Helvetica, Arial-Unicode, Arial, Sans-serif">from the Noun Project</text></svg>