<svg xmlns="http://www.w3.org/2000/svg" xmlns:xlink="http://www.w3.org/1999/xlink" version="1.1" x="0px" y="0px" viewBox="0 0 100 125" style="enable-background:new 0 0 100 100;" xml:space="preserve"><style type="text/css">
	.st0{display:none;opacity:0.58;}
</style><g><g><g><path d="M87.7,41C84.1,23.1,68.2,10.2,50,10.2c-18.2,0-34.1,13-37.7,30.8c-0.4,2.1,0.1,4.2,1.4,5.8c1.3,1.6,3.3,2.6,5.4,2.6h61.8     c2.1,0,4.1-0.9,5.4-2.6C87.6,45.1,88.1,43,87.7,41z M84,44.9c-0.8,0.9-1.9,1.5-3.1,1.5H19.1c-1.2,0-2.3-0.5-3.1-1.5     s-1.1-2.1-0.8-3.3c3.3-16.5,18-28.4,34.8-28.4c16.8,0,31.4,11.9,34.8,28.4C85,42.7,84.7,43.9,84,44.9z M63.8,61.9     c-0.2-0.8-0.2-1.6-0.2-2.5c0-3.8,0-5.8,0-5.8l-3,0c0,0,0,1.9,0,5.8c0,1.1,0.1,2.1,0.3,3.1c0.2,1,0.4,2,0.7,3     c0.7,2.9,1.6,6.2,1.8,12.5c0,7.4-6.1,13.4-13.5,13.4c-7.4,0-13.5-6-13.5-13.4c0.3-6.3,1.1-9.6,1.8-12.5c0.3-1,0.5-2,0.7-3     c0.2-1,0.3-2,0.3-3.1c0-3.9,0-5.8,0-5.8l-3,0c0,0,0,1.9,0,5.8c0,0.9-0.1,1.7-0.2,2.5c-0.2,0.9-0.4,1.9-0.7,2.8     c-0.7,2.9-1.6,6.5-1.9,13.2c0,9.1,7.4,16.4,16.5,16.4c9.1,0,16.5-7.4,16.5-16.5c-0.3-6.6-1.2-10.2-1.9-13.1     C64.2,63.7,63.9,62.8,63.8,61.9z M60,77.9h-3c0,4-3.3,7.3-7.3,7.3v3C55.4,88.2,60,83.6,60,77.9z"/></g></g></g><text x="0" y="115" fill="#000000" font-size="5px" font-weight="bold" font-family="'Helvetica Neue', Helvetica, Arial-Unicode, Arial, Sans-serif">Created by Hyhyhehe</text><text x="0" y="120" fill="#000000" font-size="5px" font-weight="bold" font-family="'Helvetica Neue', Helvetica, Arial-Unicode, Arial, Sans-serif">from the Noun Project</text></svg>