<svg width="512" height="512" viewBox="0 0 512 512" fill="none" xmlns="http://www.w3.org/2000/svg">
<g clip-path="url(#clip0)">
<path d="M464 4.3L16 262.7C-7 276 -4.7 309.9 19.8 320L160 378V480C160 510.2 197.8 523.3 216.7 500.3L277.4 426.5L403.8 478.7C422.9 486.6 444.5 474.5 447.6 454L511.6 36.9C515.7 10.2 487 -9 464 4.3ZM192 480V391.2L246.5 413.7L192 480ZM416 449.1L209.8 363.9L409.3 128.1C414.1 122.5 406.4 114.9 400.8 119.7L145.5 337.3L32 290.5L480 32L416 449.1Z" fill="white"/>
</g>
<defs>
<clipPath id="clip0">
<rect width="512" height="512" fill="white"/>
</clipPath>
</defs>
</svg>
