<svg height="512pt" viewBox="0 -13 512 512" width="512pt" xmlns="http://www.w3.org/2000/svg"><path d="m512 251.910156c0-95.769531-77.914062-173.683594-173.6875-173.683594h-284.199219c-13.296875 0-24.113281-10.820312-24.113281-24.113281 0-13.296875 10.816406-24.113281 24.113281-24.113281h230.886719v-30h-230.886719c-29.839843 0-54.113281 24.273438-54.113281 54.113281 0 25.0625 17.128906 46.191407 40.292969 52.316407.269531 5.988281.730469 11.84375 1.367187 17.570312h-41.660156v30h46.980469c2.804687 11.210938 6.449219 21.761719 10.925781 31.613281 10.011719 22.023438 24.191406 40.65625 42.152344 55.375 31.160156 25.546875 64.820312 32.238281 77.84375 33.925781 2.703125.351563 4.359375.464844 4.664062.484376l.464844.027343h155.28125c33.132812 0 60.085938 26.957031 60.085938 60.085938 0 25.351562-15.789063 47.066406-38.042969 55.878906-5.382813-31.878906-33.167969-56.242187-66.554688-56.242187h-72.984375v22.933593c0 21.195313 9.824219 40.128907 25.152344 52.515625-15.328125 12.390625-25.152344 31.324219-25.152344 52.519532v22.933593h72.984375c34.839844 0 63.597657-26.53125 67.144531-60.453125h.371094v-1.523437c84.9375-11.292969 150.683594-84.1875 150.683594-172.164063zm-260.515625 113.238282h42.316406c18.269531 0 33.535157 13.128906 36.847657 30.449218h-42.3125c-18.273438 0-33.535157-13.128906-36.851563-30.449218zm42.316406 90.898437h-42.316406c3.316406-17.320313 18.578125-30.449219 36.851563-30.449219h42.3125c-3.3125 17.320313-18.578126 30.449219-36.847657 30.449219zm27.742188-210.621094h-88.992188c22.347657-43.1875 20.367188-81.304687 13.808594-107.226562-2.945313-11.636719-7.011719-21.726563-11.082031-29.972657h89.113281c4.558594 6.800782 12.128906 19.902344 16.539063 37.332032 8.453124 33.417968 1.929687 66.980468-19.386719 99.867187zm-139.78125-.261719c-8.164063-1.058593-36.808594-6.160156-62.683594-27.375-29.589844-24.253906-45.925781-61.0625-48.664063-109.5625h130.316407c4.675781 6.980469 12.492187 20.535157 16.847656 38.554688 7.980469 33.023438 1.355469 66.175781-19.6875 98.644531h-13.800781c-.433594-.039062-1.230469-.117187-2.328125-.261719zm173.597656 1.886719c23.242187-43.859375 21.292969-82.605469 14.652344-108.851562-2.757813-10.894531-6.5-20.4375-10.308594-28.378907 37.519531 5.625 70.332031 25.808594 92.503906 54.597657.667969 6.433593 1.464844 21.714843-3.183593 39.03125-7.507813 27.949219-25.539063 48.90625-53.644532 62.410156-11.363281-9.328125-25.039062-15.925781-40.019531-18.808594zm66.761719 121.511719c4.050781-10.238281 6.277344-21.386719 6.277344-33.050781 0-16.921875-4.691407-32.765625-12.839844-46.308594 37.90625-20.710937 54.394531-50.773437 61.496094-74.679687 3.21875 11.925781 4.945312 24.457031 4.945312 37.386718 0 47.980469-23.636719 90.542969-59.878906 116.652344zm0 0"/><path d="m153 128.414062h30v30h-30zm0 0"/></svg>