<svg width="512" height="512" viewBox="0 0 512 512" fill="none" xmlns="http://www.w3.org/2000/svg">
<g clip-path="url(#clip0)">
<path d="M48 64H180C186.6 64 192 69.4 192 76V84C192 90.6 186.6 96 180 96H48C39.2 96 32 103.2 32 112V400C32 408.8 39.2 416 48 416H180C186.6 416 192 421.4 192 428V436C192 442.6 186.6 448 180 448H48C21.5 448 0 426.5 0 400V112C0 85.5 21.5 64 48 64ZM327 83.5L319.9 90.6C315.2 95.3 315.2 102.9 319.9 107.6L451.9 239H172C165.4 239 160 244.4 160 251V261C160 267.6 165.4 273 172 273H451.9L320 404.4C315.3 409.1 315.3 416.7 320 421.4L327.1 428.5C331.8 433.2 339.4 433.2 344.1 428.5L508.6 264.5C513.3 259.8 513.3 252.2 508.6 247.5L344 83.5C339.3 78.8 331.7 78.8 327 83.5Z" fill="white"/>
</g>
<defs>
<clipPath id="clip0">
<rect width="512" height="512" fill="white"/>
</clipPath>
</defs>
</svg>
