<svg height="512pt" viewBox="-45 0 512 512.00033" width="512pt" xmlns="http://www.w3.org/2000/svg"><path d="m221.507812 505.097656c.320313 3.929688 3.605469 6.902344 7.480469 6.902344.203125 0 .40625-.007812.617188-.023438 101.335937-8.25 182.640625-85.144531 192.347656-182.246093.410156-4.128907-2.601563-7.808594-6.726563-8.21875-4.148437-.417969-7.808593 2.597656-8.222656 6.726562-9.003906 90.097657-84.125 161.074219-178.617187 168.765625-4.136719.335938-7.214844 3.957032-6.878907 8.09375zm0 0"/><path d="m56.164062 447.648438c35.921876 37.207031 84.636719 60.050781 137.167969 64.324218.207031.019532.414063.027344.621094.027344 3.871094 0 7.15625-2.976562 7.476563-6.902344.335937-4.136718-2.742188-7.761718-6.878907-8.09375-100.667969-8.195312-179.523437-90.246094-179.523437-186.796875 0-44.257812 16.265625-86.777343 45.953125-120.511719 15.132812 8.644532 40.042969 1.292969 55.753906-6.210937-7.691406 46.003906 32.613281 56.59375 63.992187 11.546875 11.9375 43.824219 49.484376 44.070312 61.488282-.003906 31.488281 45.175781 71.660156 34.320312 63.988281-11.542969 15.761719 7.519531 40.609375 14.878906 55.761719 6.210937 26.28125 29.8125 41.894531 65.925782 45.261718 104.882813.355469 4.132813 4.003907 7.199219 8.132813 6.835937 4.128906-.359374 7.191406-4 6.832031-8.128906-3.722656-43.0625-21.238281-82.882812-50.722656-115.492187 5.699219-20.035157-19.226562-42.644531-38.382812-53.871094-30.34375-17.785156-66.613282-26.433594-101.921876-26.777344 3.847657-46.242187 20.617188-55.699219 30.214844-63.589843 8.0625-6.632813 9.226563-18.589844 2.59375-26.65625-6.628906-8.0625-18.589844-9.226563-26.652344-2.597657-.703124.578125-1.460937 1.183594-2.261718 1.824219-12.558594 10.042969-37.472656 29.972656-41.855469 91.003906-83.121094.25-151.023437 47.988282-141.730469 80.664063-70.230468 77.757812-68.519531 194.03125 4.691406 269.855469zm188.273438-429.792969c2.597656-2.074219 3.210938-2.839844 4.90625-2.839844 3.65625 0 5.324219 4.605469 2.488281 6.9375-.53125.4375-1.253906.976563-2.085937 1.597656-28.8125 21.542969-34.363282 56.859375-34.363282 92.921875 0 2.160156-1.757812 3.914063-3.914062 3.914063-2.160156 0-3.914062-1.753907-3.914062-3.914063 0-60.054687 17.113281-82.804687 36.882812-98.617187zm-178.449219 151.765625c5.308594-23.707032 59.621094-57.0625 126.574219-57.46875v.242187c-.019531 1.34375-.03125 2.699219-.03125 4.078125 0 10.441406 8.496094 18.9375 18.9375 18.9375s18.9375-8.496094 18.9375-18.9375c0-1.378906.011719-2.75.035156-4.109375 0-.070312 0-.140625 0-.207031 86.382813.574219 134.398438 50.683594 125.980469 62.796875-3.226563 4.625-16.859375 5.386719-34.300781-.992187-10.328125-3.78125-17.15625-8.226563-18.636719-8.890626-8.007813-3.613281-16.648437 3.847657-14.117187 12.320313 5.113281 17.089844 2.511718 28.722656-2.535157 30.988281-7.363281 3.300782-25.703125-7.6875-38.867187-32.800781-4.3125-8.394531-16.875-6.140625-17.945313 3.246094-2.394531 21.078125-11.492187 34.132812-18.550781 34.132812s-16.15625-13.054687-18.550781-34.132812c-1.050781-9.222657-13.453125-11.761719-17.945313-3.246094-13.214844 25.203125-31.539062 36.089844-38.867187 32.800781-5.046875-2.269531-7.652344-13.898437-2.535157-30.988281 2.683594-8.984375-7.089843-16.527344-15.097656-11.824219-.023437.011719-.058594.035156-.09375.054688-25.296875 14.824218-47.613281 15.429687-51.863281 9.332031-.011719-.019531-.027344-.03125-.039063-.050781-.832031-1.234375-1-3.007813-.488281-5.28125zm0 0"/></svg>